<svg xmlns="http://www.w3.org/2000/svg" width="74.5" height="74.5" viewBox="0 0 74.5 74.5">
  <g id="Group_111" data-name="Group 111" transform="translate(-1090.975 -4580.23)">
    <circle id="Ellipse_2" data-name="Ellipse 2" cx="36.75" cy="36.75" r="36.75" transform="translate(1091.475 4580.73)" fill="none" stroke="#ff4e32" stroke-miterlimit="22.926" stroke-width="1"/>
    <path id="Path_507" data-name="Path 507" d="M1128.225,4617.611l-8.655-7.332h17.31Zm9.837,7.071h-19.675c-.248,0-.466-.161-.466-.345v-11.9l8.9,7.513a1.012,1.012,0,0,0,.653.238h1.5a1.013,1.013,0,0,0,.653-.239l8.9-7.514v11.9C1138.528,4624.521,1138.311,4624.682,1138.062,4624.682Zm0-17h-19.675a3.006,3.006,0,0,0-3.062,2.94v13.714a3.006,3.006,0,0,0,3.062,2.941h19.675a3.007,3.007,0,0,0,3.063-2.941v-13.714A3.007,3.007,0,0,0,1138.062,4607.683Z" fill="#ff4e32" fill-rule="evenodd"/>
  </g>
</svg>
