<svg xmlns="http://www.w3.org/2000/svg" width="74.5" height="74.5" viewBox="0 0 74.5 74.5">
  <g id="Group_109" data-name="Group 109" transform="translate(-1090.975 -4373.605)">
    <circle id="Ellipse_3" data-name="Ellipse 3" cx="36.75" cy="36.75" r="36.75" transform="translate(1091.475 4374.105)" fill="none" stroke="#ff4e32" stroke-miterlimit="22.926" stroke-width="1"/>
    <path id="Path_508" data-name="Path 508" d="M1138.916,4409.787c0,.013-.006.027-.006.04-.007.033-.027.133-.06.285v.014a10.565,10.565,0,0,1-.737,2.163c-.006.007-.006.02-.013.027-1.241,2.94-3.962,7.426-9.882,12.317-5.92-4.891-8.641-9.377-9.882-12.317-.007-.007-.007-.02-.013-.027a11.233,11.233,0,0,1-.737-2.163v-.014c-.04-.152-.053-.252-.06-.285,0-.013-.006-.027-.006-.046a10.9,10.9,0,1,1,21.4.006m-10.7,4.334a6.265,6.265,0,1,1,6.265-6.265A6.272,6.272,0,0,1,1128.218,4414.121Zm0-14.322a8.057,8.057,0,1,0,8.057,8.057A8.07,8.07,0,0,0,1128.218,4399.8Zm0-4.772a12.707,12.707,0,0,0-12.689,12.69,12.463,12.463,0,0,0,.226,2.382c.006.047.033.186.086.425a12.507,12.507,0,0,0,.849,2.5c1.367,3.219,4.374,8.163,10.971,13.459a.9.9,0,0,0,1.128,0c6.59-5.3,9.6-10.24,10.97-13.459a12.355,12.355,0,0,0,.85-2.5c.053-.239.079-.378.086-.425a13.049,13.049,0,0,0,.226-2.382A12.728,12.728,0,0,0,1128.218,4395.027Z" fill="#ff4e32" fill-rule="evenodd"/>
  </g>
</svg>
