<svg xmlns="http://www.w3.org/2000/svg" width="35.217" height="35.218" viewBox="0 0 35.217 35.218">
  <g id="Group_113" data-name="Group 113" transform="translate(-1393.112 -5119.474)">
    <path id="Path_518" data-name="Path 518" d="M1410.721,5154.692a17.609,17.609,0,1,1,17.608-17.608,17.628,17.628,0,0,1-17.608,17.608m0-33.326a15.717,15.717,0,1,0,15.717,15.718A15.736,15.736,0,0,0,1410.721,5121.366Z" fill="#3368a4"/>
    <path id="Path_519" data-name="Path 519" d="M1407.959,5137.167v10.206a.266.266,0,0,0,.266.265h3.79a.266.266,0,0,0,.266-.265V5137h2.748a.264.264,0,0,0,.264-.243l.265-3.125a.267.267,0,0,0-.265-.289h-3.012v-2.216a.941.941,0,0,1,.941-.942h2.118a.266.266,0,0,0,.266-.265v-3.125a.267.267,0,0,0-.266-.266h-3.579a3.8,3.8,0,0,0-3.8,3.8v3.013h-1.9a.266.266,0,0,0-.265.266v3.125a.265.265,0,0,0,.265.266h1.9Z" fill="#3368a4" fill-rule="evenodd"/>
  </g>
</svg>
