<svg xmlns="http://www.w3.org/2000/svg" width="63" height="63.344" viewBox="0 0 63 63.344">
  <g id="Group_105" data-name="Group 105" transform="translate(-417.824 -579.44)">
    <path id="Path_405" data-name="Path 405" d="M449.324,579.44h0a31.592,31.592,0,0,1,31.5,31.5v.344a31.5,31.5,0,0,1-63,0v-.344a31.593,31.593,0,0,1,31.5-31.5" fill="#ff4e32" fill-rule="evenodd"/>
    <path id="Path_406" data-name="Path 406" d="M456.532,610.971l2.51-.429a11.268,11.268,0,0,0-9.529-9.242l-.354,2.523a8.706,8.706,0,0,1,7.373,7.148m3.924-10.909a18.5,18.5,0,0,0-10.61-5.291l-.353,2.522a16.147,16.147,0,0,1,13.663,13.243l2.51-.429A18.632,18.632,0,0,0,460.456,600.062Zm-2.625,16.329a2.29,2.29,0,0,0-3.462,0c-.809.8-1.618,1.6-2.414,2.422a.476.476,0,0,1-.666.122c-.524-.286-1.082-.517-1.585-.83a25.068,25.068,0,0,1-6.053-5.509,14.336,14.336,0,0,1-2.17-3.475.5.5,0,0,1,.122-.64c.81-.782,1.6-1.584,2.394-2.386a2.3,2.3,0,0,0-.006-3.544c-.633-.639-1.266-1.265-1.9-1.905-.653-.652-1.3-1.312-1.959-1.958a2.3,2.3,0,0,0-3.462.007c-.816.8-1.6,1.625-2.427,2.414a3.938,3.938,0,0,0-1.238,2.66,11.255,11.255,0,0,0,.87,4.849,29.479,29.479,0,0,0,5.23,8.712,32.377,32.377,0,0,0,10.719,8.386,15.494,15.494,0,0,0,5.937,1.727,4.348,4.348,0,0,0,3.734-1.421c.694-.775,1.476-1.483,2.211-2.224a2.313,2.313,0,0,0,.013-3.523Q459.783,618.327,457.831,616.391Z" fill="#fff"/>
  </g>
</svg>
