<svg xmlns="http://www.w3.org/2000/svg" width="51.19" height="51.19" viewBox="0 0 51.19 51.19">
  <g id="Group_103" data-name="Group 103" transform="translate(-1707.854 -30.685)">
    <g id="Group_102" data-name="Group 102">
      <g id="Group_101" data-name="Group 101">
        <path id="Rectangle_13" data-name="Rectangle 13" d="M4.839,0H45.351A4.839,4.839,0,0,1,50.19,4.839V45.352a4.838,4.838,0,0,1-4.838,4.838H4.838A4.838,4.838,0,0,1,0,45.352V4.839A4.839,4.839,0,0,1,4.839,0Z" transform="translate(1708.354 31.185)" fill="none" stroke="#006a98" stroke-miterlimit="22.926" stroke-width="1"/>
        <path id="Path_4" data-name="Path 4" d="M1729.186,44.982a6.563,6.563,0,1,0,4.253,11.391h0l.01-.009.052-.049a6.563,6.563,0,0,0-4.316-11.332m6.359,11.978q-.27.325-.578.63l-.011.011-.012.011-.011.011-.011.012-.012.011h0l-.011.011-.011.01-.057.055-.058.053-.012.012-.011.009h0l-.012.011-.012.01-.012.011-.011.011-.012.011c-.214.192-.435.373-.662.54,1.038,1.276,1.923,2.454,2.815,3.642a32.839,32.839,0,0,0,3.695,4.743l3.12-2.944c-2.633-2.724-2.6-2.127-4.64-3.852C1737.884,59.021,1736.759,58.07,1735.545,56.96Zm-12.382-11.6a8.5,8.5,0,0,1,13.449,9.957c1.268,1.169,2.457,2.175,3.658,3.189,2.262,1.912,2.456,1.508,5.465,4.695l.664.7-5.943,5.611-.665-.7A37.665,37.665,0,0,1,1735.3,63.2c-.944-1.257-1.879-2.5-2.973-3.835a8.5,8.5,0,0,1-9.166-14Z" fill="#ff4e32" fill-rule="evenodd"/>
      </g>
    </g>
  </g>
</svg>
