<svg xmlns="http://www.w3.org/2000/svg" width="35.218" height="35.218" viewBox="0 0 35.218 35.218">
  <g id="Group_112" data-name="Group 112" transform="translate(-1340.505 -5119.474)">
    <path id="Path_512" data-name="Path 512" d="M1358.114,5154.692a17.609,17.609,0,1,1,17.609-17.608,17.628,17.628,0,0,1-17.609,17.608m0-33.326a15.717,15.717,0,1,0,15.717,15.718A15.735,15.735,0,0,0,1358.114,5121.366Z" fill="#00bae5"/>
    <path id="Path_513" data-name="Path 513" d="M1368.235,5130.657a8.45,8.45,0,0,1-2.074.592c.334-.056.827-.661,1.023-.9a3.794,3.794,0,0,0,.691-1.257c.018-.036.031-.081,0-.108a.119.119,0,0,0-.11.009,10.59,10.59,0,0,1-2.463.942.161.161,0,0,1-.169-.045,2.183,2.183,0,0,0-.216-.22,4.376,4.376,0,0,0-1.193-.731,4.162,4.162,0,0,0-1.829-.295,4.4,4.4,0,0,0-1.736.491,4.49,4.49,0,0,0-1.4,1.143,4.307,4.307,0,0,0-.836,1.675,4.559,4.559,0,0,0-.045,1.769c.014.1.005.112-.084.1a13.149,13.149,0,0,1-8.462-4.308c-.1-.112-.153-.112-.235.009a4.294,4.294,0,0,0,.732,5.071c.166.157.336.314.52.457a4.33,4.33,0,0,1-1.632-.457c-.1-.063-.149-.027-.158.085a2.62,2.62,0,0,0,.027.485,4.339,4.339,0,0,0,2.675,3.459,2.565,2.565,0,0,0,.542.166,4.863,4.863,0,0,1-1.6.049c-.116-.022-.161.036-.116.148a4.5,4.5,0,0,0,3.365,2.818c.153.027.305.027.458.063-.009.014-.019.014-.027.027a5.343,5.343,0,0,1-2.3,1.218,8.215,8.215,0,0,1-3.49.446c-.188-.027-.228-.025-.278,0s-.007.077.054.125c.238.158.479.3.726.432a11.613,11.613,0,0,0,2.333.933,12.428,12.428,0,0,0,12.064-2.821c2.472-2.456,3.339-5.843,3.339-9.235,0-.133.157-.206.25-.277a8.118,8.118,0,0,0,1.634-1.707.5.5,0,0,0,.1-.327v-.018c0-.054.006-.037-.077,0" fill="#00bae5"/>
    <path id="Path_514" data-name="Path 514" d="M1353.882,5145.464h0" fill="#fefefe" fill-rule="evenodd"/>
    <path id="Path_515" data-name="Path 515" d="M1353.882,5145.464h0" fill="#fefefe" fill-rule="evenodd"/>
    <path id="Path_516" data-name="Path 516" d="M1354.574,5145.481c0-.034.363,0,0,0,0-.017.044,0,0,0" fill="#fefefe" fill-rule="evenodd"/>
    <path id="Path_517" data-name="Path 517" d="M1361.833,5128.655a.07.07,0,0,1-.085,0h.085" fill="#fefefe" fill-rule="evenodd"/>
  </g>
</svg>
