<svg xmlns="http://www.w3.org/2000/svg" width="74.5" height="74.5" viewBox="0 0 74.5 74.5">
  <g id="Group_110" data-name="Group 110" transform="translate(-1090.975 -4477.723)">
    <path id="Path_506" data-name="Path 506" d="M1134.6,4514.847l2.218-.378a9.959,9.959,0,0,0-8.422-8.17l-.313,2.23a7.694,7.694,0,0,1,6.517,6.318m3.469-9.643a16.359,16.359,0,0,0-9.379-4.677l-.312,2.23a14.274,14.274,0,0,1,12.077,11.706l2.219-.379A16.476,16.476,0,0,0,1138.065,4505.2Zm-2.321,14.435a2.024,2.024,0,0,0-3.06,0c-.715.71-1.43,1.419-2.134,2.14a.42.42,0,0,1-.589.108c-.463-.252-.956-.456-1.4-.733a22.18,22.18,0,0,1-5.351-4.87,12.706,12.706,0,0,1-1.918-3.072.441.441,0,0,1,.109-.565c.715-.691,1.413-1.4,2.116-2.11a2.032,2.032,0,0,0-.006-3.132c-.559-.565-1.118-1.118-1.677-1.684-.578-.577-1.149-1.16-1.732-1.731a2.036,2.036,0,0,0-3.06.006c-.722.709-1.413,1.437-2.146,2.134a3.487,3.487,0,0,0-1.094,2.351,9.947,9.947,0,0,0,.769,4.286,26.073,26.073,0,0,0,4.623,7.7,28.618,28.618,0,0,0,9.475,7.412,13.691,13.691,0,0,0,5.248,1.527,3.845,3.845,0,0,0,3.3-1.256c.613-.686,1.3-1.311,1.954-1.966a2.045,2.045,0,0,0,.012-3.114Q1137.47,4521.348,1135.744,4519.639Z" fill="#ff4e32"/>
    <circle id="Ellipse_1" data-name="Ellipse 1" cx="36.75" cy="36.75" r="36.75" transform="translate(1091.475 4478.223)" fill="none" stroke="#ff4e32" stroke-miterlimit="22.926" stroke-width="1"/>
  </g>
</svg>
