<svg xmlns="http://www.w3.org/2000/svg" width="94.829" height="126.425" viewBox="0 0 94.829 126.425">
  <g id="Group_107" data-name="Group 107" transform="translate(-428.714 -1303.992)">
    <g id="Group_106" data-name="Group 106">
      <path id="Path_408" data-name="Path 408" d="M475.573,1312.919l34.418-8.864c2.441-.634,7.462,3.663,6.557,6.377l-29.668,91.99c-.86,2.714-3.664,5.337-6.151,5.744l-38.035,6.648c-2.488.453-7.282.181-7.508-4.432l34.236-91.764a9.883,9.883,0,0,1,6.151-5.744Z" fill="#cf7c29" fill-rule="evenodd"/>
      <path id="Path_409" data-name="Path 409" d="M471.207,1310.77l38.144-6.645c2.477-.432,3.73,1.568,2.795,4.465l-29.467,91.391c-.934,2.9-3.7,5.6-6.179,6.029l-38.143,6.645c-2.477.431-3.729-1.569-2.795-4.466l29.466-91.391c.935-2.9,3.7-5.6,6.18-6.028" fill="#f93" fill-rule="evenodd"/>
      <path id="Path_410" data-name="Path 410" d="M472.2,1312.587l34.8-6.063c2.261-.393,3.369,1.54,2.473,4.317l-28.247,87.609c-.9,2.778-3.456,5.35-5.716,5.744l-34.8,6.063c-2.26.393-3.367-1.54-2.472-4.317l28.247-87.609c.9-2.778,3.456-5.35,5.717-5.744" fill="#fc9" fill-rule="evenodd"/>
      <path id="Path_411" data-name="Path 411" d="M486.931,1331.47l31.82-5.543c3.231-.563,5.322.611,4.675,2.621l-6.392,19.814c-.645,2.009-3.788,4.095-7.015,4.657l-31.823,5.544c-3.224.562-5.316-.612-4.668-2.622l6.385-19.814c.651-2.009,3.794-4.095,7.021-4.657" fill="#7ccf7c" fill-rule="evenodd"/>
      <path id="Path_412" data-name="Path 412" d="M485.591,1330.03l31.821-5.543c3.23-.563,5.322.611,4.674,2.62l-6.392,19.815c-.644,2.009-3.787,4.095-7.014,4.657l-31.824,5.544c-3.224.562-5.316-.612-4.667-2.622l6.384-19.813c.652-2.01,3.8-4.1,7.022-4.658" fill="#9f9" fill-rule="evenodd"/>
      <path id="Path_413" data-name="Path 413" d="M472.452,1317.757l9.161-1.6c.93-.161,1.4.588,1.05,1.675l-3.456,10.713a3.465,3.465,0,0,1-2.316,2.261l-9.163,1.6c-.928.162-1.4-.588-1.047-1.674l3.453-10.714a3.473,3.473,0,0,1,2.318-2.261" fill="#b85cb8" fill-rule="evenodd"/>
      <path id="Path_414" data-name="Path 414" d="M471.363,1316.57l9.162-1.6c.93-.161,1.4.589,1.049,1.675l-3.455,10.713a3.464,3.464,0,0,1-2.316,2.261l-9.163,1.6c-.928.162-1.4-.588-1.048-1.674l3.454-10.714a3.473,3.473,0,0,1,2.318-2.261" fill="#c6c" fill-rule="evenodd"/>
      <path id="Path_415" data-name="Path 415" d="M451.467,1375.648l25.463-4.432-.769,2.442L450.7,1378.09Zm1.493-4.613,25.462-4.432-.769,2.442-25.462,4.432Zm1.492-4.613,25.463-4.432-.769,2.442-25.463,4.432Zm-4.477,13.885,12.12-2.126-.768,2.442-12.121,2.126Z" fill="#8ab8b8" fill-rule="evenodd"/>
      <path id="Path_416" data-name="Path 416" d="M450.743,1375.241l25.463-4.432-.769,2.442-25.462,4.432Zm1.493-4.613L477.7,1366.2l-.769,2.442-25.463,4.432Zm1.493-4.613,25.462-4.432-.769,2.442-25.462,4.432Zm-4.478,13.884,12.121-2.125-.769,2.442-12.121,2.126Z" fill="#9cc" fill-rule="evenodd"/>
      <path id="Path_417" data-name="Path 417" d="M459.789,1385.191l.135,2.4,2.306-.181-2.442,2.171-.317,2.578-1.583-1.085-2.487,1.809,1.4-2.849-1.221-1.493,2.487-.633Z" fill="#cfa600" fill-rule="evenodd"/>
      <path id="Path_418" data-name="Path 418" d="M468.473,1383.653l.09,2.442,2.307-.181-2.442,2.126-.271,2.623-1.628-1.085-2.487,1.809,1.447-2.849-1.221-1.493,2.442-.633Z" fill="#cfa600" fill-rule="evenodd"/>
      <path id="Path_419" data-name="Path 419" d="M477.111,1382.161l.09,2.442,2.306-.226-2.4,2.171-.317,2.623-1.583-1.131-2.533,1.854,1.447-2.85-1.221-1.492,2.487-.678Z" fill="#cfa600" fill-rule="evenodd"/>
      <path id="Path_420" data-name="Path 420" d="M485.749,1380.668l.09,2.4,2.307-.181-2.4,2.171-.317,2.578-1.583-1.085-2.488,1.809,1.4-2.8-1.221-1.493,2.487-.678Z" fill="#cfa600" fill-rule="evenodd"/>
      <path id="Path_421" data-name="Path 421" d="M494.432,1379.13l.091,2.442,2.307-.181-2.442,2.126-.317,2.623-1.583-1.086L490,1386.864l1.447-2.849-1.267-1.493,2.487-.633Z" fill="#cfa600" fill-rule="evenodd"/>
      <path id="Path_422" data-name="Path 422" d="M503.071,1377.638l.09,2.442,2.307-.226-2.4,2.171-.317,2.623-1.628-1.085-2.487,1.809,1.447-2.85-1.221-1.492,2.442-.679Z" fill="#cfa600" fill-rule="evenodd"/>
      <path id="Path_423" data-name="Path 423" d="M459.337,1384.558l.09,2.4,2.307-.181-2.4,2.171-.317,2.623-1.628-1.13-2.487,1.809,1.447-2.8-1.221-1.492,2.442-.678Z" fill="#fc0" fill-rule="evenodd"/>
      <path id="Path_424" data-name="Path 424" d="M467.975,1383.02l.09,2.442,2.307-.181-2.4,2.171-.317,2.578-1.583-1.086-2.533,1.809,1.447-2.849-1.221-1.492,2.487-.633Z" fill="#fc0" fill-rule="evenodd"/>
      <path id="Path_425" data-name="Path 425" d="M476.613,1381.527l.136,2.442,2.306-.226-2.442,2.171-.316,2.623-1.583-1.085-2.487,1.809,1.4-2.849-1.221-1.492,2.488-.634Z" fill="#fc0" fill-rule="evenodd"/>
      <path id="Path_426" data-name="Path 426" d="M485.3,1380.035l.09,2.442,2.307-.226-2.442,2.171-.317,2.623-1.583-1.131-2.487,1.809,1.447-2.8-1.267-1.493,2.487-.678Z" fill="#fc0" fill-rule="evenodd"/>
      <path id="Path_427" data-name="Path 427" d="M493.935,1378.5l.09,2.442,2.307-.181-2.4,2.171-.317,2.578-1.583-1.085-2.533,1.809,1.447-2.849-1.221-1.492,2.442-.633Z" fill="#fc0" fill-rule="evenodd"/>
      <path id="Path_428" data-name="Path 428" d="M502.573,1377.005l.091,2.442,2.306-.181-2.4,2.125-.316,2.623-1.583-1.085-2.487,1.809,1.4-2.849-1.221-1.493,2.487-.633Z" fill="#fc0" fill-rule="evenodd"/>
      <path id="Path_429" data-name="Path 429" d="M434.392,1401.112l15.706-2.736c.62-.108.933.391.7,1.116l-2.327,7.215a2.308,2.308,0,0,1-1.544,1.506l-15.707,2.737c-.619.107-.932-.392-.7-1.117l2.325-7.214a2.316,2.316,0,0,1,1.546-1.507" fill="#5353cf" fill-rule="evenodd"/>
      <path id="Path_430" data-name="Path 430" d="M455.489,1397.436l19.035-3.316c.752-.131,1.171.351.938,1.075l-2.328,7.216a2.5,2.5,0,0,1-1.78,1.547l-19.037,3.317c-.75.13-1.169-.351-.935-1.075l2.324-7.215a2.514,2.514,0,0,1,1.784-1.549" fill="#5353cf" fill-rule="evenodd"/>
      <path id="Path_431" data-name="Path 431" d="M432.661,1400.32l15.706-2.736c.621-.108.934.392.7,1.116l-2.327,7.216a2.31,2.31,0,0,1-1.544,1.506l-15.707,2.737c-.618.107-.931-.393-.7-1.117l2.325-7.214a2.315,2.315,0,0,1,1.545-1.508" fill="#66f" fill-rule="evenodd"/>
      <path id="Path_432" data-name="Path 432" d="M453.758,1396.646l19.035-3.317c.752-.131,1.172.35.938,1.075l-2.327,7.215a2.507,2.507,0,0,1-1.781,1.548l-19.037,3.317c-.75.13-1.169-.351-.935-1.075l2.324-7.215a2.511,2.511,0,0,1,1.784-1.548" fill="#66f" fill-rule="evenodd"/>
      <path id="Path_433" data-name="Path 433" d="M522.2,1425.035c0-2.972-20.694-5.382-46.221-5.382s-46.221,2.41-46.221,5.382,20.694,5.382,46.221,5.382,46.221-2.409,46.221-5.382" fill="#e6e6e6" fill-rule="evenodd"/>
    </g>
  </g>
</svg>
