<svg xmlns="http://www.w3.org/2000/svg" width="35.217" height="35.218" viewBox="0 0 35.217 35.218">
  <g id="Group_115" data-name="Group 115" transform="translate(-1494.425 -5120.415)">
    <path id="Path_520" data-name="Path 520" d="M1512.034,5155.633a17.609,17.609,0,1,1,17.608-17.608,17.628,17.628,0,0,1-17.608,17.608m0-33.326a15.718,15.718,0,1,0,15.717,15.718A15.735,15.735,0,0,0,1512.034,5122.307Z" fill="#ef464a"/>
    <path id="Path_521" data-name="Path 521" d="M1522.578,5135.354a4.523,4.523,0,0,0-4.523-4.522h-11.728a4.522,4.522,0,0,0-4.523,4.522v5.5a4.522,4.522,0,0,0,4.523,4.522h11.728a4.523,4.523,0,0,0,4.523-4.522Zm-7.4,3.025-4.677,2.566c-.2.11-.387-.037-.387-.268v-5.267c0-.233.189-.381.392-.265l4.709,2.7A.3.3,0,0,1,1515.177,5138.379Z" fill="#ef464a"/>
  </g>
</svg>
